inDegrees=no
num_controls=7
num_derivatives=13
num_iterations=111
num_multipliers=7
num_parameters=0
num_slacks=7
num_states=26
objective=0.497123
objective_accelerations=0.032258
objective_balance=0.003262
objective_effort=0.035008
objective_height=0.421111
objective_ligament=0.005484
solver_duration=1238.117648
status=Solve_Succeeded
success=true
DataType=double
version=3
OpenSimVersion=4.5
endheader
time	/jointset/ground_pelvis/pelvis_tilt/value	/jointset/ground_pelvis/pelvis_tx/value	/jointset/ground_pelvis/pelvis_ty/value	/jointset/hip_r/hip_flexion_r/value	/jointset/hip_r/hip_adduction_r/value	/jointset/hip_r/hip_rotation_r/value	/jointset/back/lumbar_extension/value	/jointset/patellofemoral_r/patellar_flexion_r/value	/jointset/knee_r/knee_flexion_r/value	/jointset/knee_r/knee_adduction_r/value	/jointset/knee_r/knee_rotation_r/value	/jointset/ankle_r/ankle_angle_r/value	/jointset/subtalar_r/subtalar_angle_r/value	/jointset/ground_pelvis/pelvis_tilt/speed	/jointset/ground_pelvis/pelvis_tx/speed	/jointset/ground_pelvis/pelvis_ty/speed	/jointset/hip_r/hip_flexion_r/speed	/jointset/hip_r/hip_adduction_r/speed	/jointset/hip_r/hip_rotation_r/speed	/jointset/back/lumbar_extension/speed	/jointset/patellofemoral_r/patellar_flexion_r/speed	/jointset/knee_r/knee_flexion_r/speed	/jointset/knee_r/knee_adduction_r/speed	/jointset/knee_r/knee_rotation_r/speed	/jointset/ankle_r/ankle_angle_r/speed	/jointset/subtalar_r/subtalar_angle_r/speed	/forceset/tau_hip_flexion_r	/forceset/tau_hip_adduction_r	/forceset/tau_hip_rotation_r	/forceset/tau_knee_flexion_r	/forceset/tau_ankle_angle_r	/forceset/tau_subtalar_angle_r	/forceset/tau_lumbar_extension	lambda_cid13_p0	lambda_cid14_p0	lambda_cid14_p1	lambda_cid14_p2	lambda_cid14_p3	lambda_cid14_p4	lambda_cid14_p5	/jointset/ground_pelvis/pelvis_tilt/accel	/jointset/ground_pelvis/pelvis_tx/accel	/jointset/ground_pelvis/pelvis_ty/accel	/jointset/hip_r/hip_flexion_r/accel	/jointset/hip_r/hip_adduction_r/accel	/jointset/hip_r/hip_rotation_r/accel	/jointset/back/lumbar_extension/accel	/jointset/patellofemoral_r/patellar_flexion_r/accel	/jointset/knee_r/knee_flexion_r/accel	/jointset/knee_r/knee_adduction_r/accel	/jointset/knee_r/knee_rotation_r/accel	/jointset/ankle_r/ankle_angle_r/accel	/jointset/subtalar_r/subtalar_angle_r/accel	gamma_cid13_p0	gamma_cid14_p0	gamma_cid14_p1	gamma_cid14_p2	gamma_cid14_p3	gamma_cid14_p4	gamma_cid14_p5
1	-0.1830571534138851	0.03867173912293113	0.7501930950678297	1.096994240808759	-0.2364705897040788	-0.07135428264694027	-0.4362763574794147	1.156406834184392	1.156406834184657	-0.02879206139430223	0.1744643444043485	0.4363113678926346	0.1035426464924517	0.000147000904353963	0.004564599107752235	0.01271759509911578	-0.03691351992570049	0.001695419482581711	-0.009481541775524427	0.005337573184061995	-0.04534152884721036	-0.0453415288472123	0.001059201112040138	-0.0001951429399820893	-0.009881769159983711	-0.0007204102116901299	-0.2004694487628726	0.02884063946098719	0.01336780559417971	-0.4421207718443383	-0.04498547467925933	0.005679537253281451	0.2455144875227272	-3.15906584620323	-61.67005807626204	-8.526067540243076	2.041662477375825	20.98419084691555	-771.228619200239	55.81643295899215	0.9592977131433553	0.002703765726028587	1.236574616476796	-3.885709275379584	0.1248409654380806	-0.5756487616092939	0.3031692265522954	-4.325933826245088	-4.325933826245112	0.4855712791431284	-0.01461467246409824	-1.585145516665161	-0.3892367747708051	9.564726137008831e-10	-2.053208550987718e-09	3.380419385639067e-09	8.492675740664402e-09	5.859005318853555e-09	-3.595838975942971e-09	2.136802206360739e-09
1.01	-0.1830087419039374	0.03871768732113966	0.7503819746220688	1.096431764654165	-0.2364475046800167	-0.07147730975995335	-0.4362057600252922	1.155737253188126	1.155737253188183	-0.02875652424401136	0.1744615925409485	0.4361334547651703	0.1035158413269353	0.009492422015094301	0.004643552942280555	0.02505847946913307	-0.07557208585857285	0.00291895426429477	-0.0151243455005435	0.008921263021337208	-0.08859293737976402	-0.08859293737976374	0.006057280172375831	-0.0003531048752634667	-0.02568663667541035	-0.004638843513747277	-0.2010949488028266	0.02893693669676787	0.01337283776384559	-0.4417851195649931	-0.04517259773453848	0.005674443080406296	0.24621895093945	-3.186207298155509	-61.74472083328062	-8.538306725480862	2.040134325176447	20.80583220165102	-771.651448575146	55.76892319201716	0.9157332438473086	0.01326938367010128	1.232868380213876	-3.854485905302831	0.1207180728850279	-0.5586647615387897	0.406870668089121	-4.327484787192678	-4.327484787192297	0.5082846977794389	-0.01606478011398954	-1.576025214749806	-0.3928765383531734	1.86324409910021e-09	-2.001114016248342e-09	7.758016046959301e-09	1.552301364522918e-08	6.641754536819525e-09	-7.585282340289675e-09	6.492668353828226e-09
1.02	-0.1828681623961207	0.03876498069596442	0.7506942676265976	1.095482991709636	-0.2364122626404641	-0.07165677862693885	-0.4360951453116004	1.154634610022447	1.154634610022296	-0.02867073460744746	0.1744573254929853	0.4357979193933736	0.103449905842313	0.01858060047815365	0.004833634430996668	0.03740028515712319	-0.1141728779139155	0.004126822579888207	-0.02076989256918293	0.01334102508956453	-0.1319539627296047	-0.1319539627296021	0.01110969836473722	-0.000498179852695676	-0.0414062180215715	-0.008546474033005574	-0.2017204488427505	0.02903323393255432	0.01337786993344841	-0.441449467285648	-0.04535972078981896	0.005669348907541944	0.2469234143562001	-3.231203009211936	-61.82963393541473	-8.547400755010884	2.032462193875457	20.64881185935739	-772.237864365612	55.74598389998928	0.9078491836071249	0.02492929656364845	1.236758880071361	-3.874154499873695	0.1217076722141468	-0.5761974303333832	0.4703836727424554	-4.347857189702461	-4.34785718970246	0.4964391055482574	-0.01203728089424721	-1.568088282811953	-0.3870762182110112	2.685899477838675e-09	-1.253119517582252e-09	1.133611119847289e-08	2.369244001025192e-08	6.341699374802924e-09	-9.48244938172374e-09	9.70874396034053e-09
1.03	-0.1826379825800498	0.03881473610962179	0.7511299359059662	1.094148556375858	-0.2363650334183641	-0.07189270591391309	-0.4359361839006138	1.153097866020267	1.153097866020099	-0.02853413053750745	0.1744516836167355	0.4353056087596399	0.1033449350002832	0.02741079207874933	0.005136631447151086	0.0497285262190327	-0.1526965497554677	0.005315439144706512	-0.02641458156422644	0.01859054027069376	-0.1754072489692987	-0.1754072489692957	0.01622172769004841	-0.0006278352714703355	-0.05704223761570618	-0.01244660446271988	-0.2021010582589691	0.02905582203337357	0.01339316920862135	-0.4409229045851937	-0.04532080969079139	0.005632935660993785	0.2474257819468337	-3.294441650486339	-61.82191107943429	-8.551753333335171	2.021608644621729	20.44112275167315	-772.4657863336829	55.70319540146431	0.8639197098411914	0.03586358049559726	1.230127761596528	-3.838826785052661	0.1169071393821876	-0.5584546140249576	0.5731279146733519	-4.345926736974692	-4.345926736974586	0.5201780267177727	-0.01306858591607914	-1.559309136634259	-0.3913117084689851	3.507696528958151e-09	-4.980239988760902e-10	1.490604817131497e-08	3.187348972691201e-08	6.030595188500779e-09	-1.135826666476073e-08	1.291318905112879e-08
1.04	-0.1823208377356629	0.03886809722871169	0.7516887408044227	1.092429413671914	-0.2363060243324592	-0.07218505008682721	-0.435720548843027	1.151126216676514	1.151126216676331	-0.02834608753816626	0.1744448174035892	0.4346573478621746	0.1032009968033336	0.03597360614156204	0.005554775517505136	0.0620276089747613	-0.191114351947287	0.006482795340180082	-0.03205326975667163	0.02467575440682688	-0.2189350310438655	-0.2189350310438622	0.02139748424316805	-0.0007430472321228169	-0.07259627076664152	-0.01633994501712895	-0.2024816676751856	0.02907841013420207	0.01340846848372018	-0.4403963418847427	-0.04528189859176171	0.005596522414463919	0.2479281495374682	-3.376453959740872	-61.82442863155905	-8.552845863702473	2.004463559898567	20.25306249007773	-772.858429754826	55.68547610433065	0.8543736760505047	0.0479587074036175	1.23092721883518	-3.852980569927158	0.117455598345189	-0.5749972698137379	0.6375234637431082	-4.362756356676976	-4.362756356677048	0.509184551109942	-0.009148589269785169	-1.551690994172011	-0.3857182431499548	4.399917678731075e-09	3.622757211054788e-10	1.759635074809927e-08	4.04439123073154e-08	5.662800635037793e-09	-1.320848828873548e-08	1.531601856481799e-08
1.05	-0.1819193256698984	0.03892621558093606	0.7523703449196919	1.090326621636441	-0.2362354668223742	-0.07253375252222256	-0.4354400333369365	1.148718990104968	1.148718990104932	-0.02810595405727275	0.1744368992441782	0.4338539511373831	0.1030181368717187	0.04428949630985838	0.006088179154731488	0.07428348096933184	-0.2294238761794354	0.007624050410115983	-0.03768543900550127	0.03155485489743107	-0.2625151823399424	-0.2625151823399353	0.02664068023216587	-0.0008374519806105278	-0.08806974518959013	-0.02023176491071119	-0.2025780735538024	0.02902110698587849	0.0134331928208012	-0.4396653206247493	-0.04501742412003713	0.005529078458863309	0.2481787495869726	-3.477889827148819	-61.73218895995713	-8.548443867137705	1.983724091241561	20.02308856079069	-772.8469519338776	55.64747948352091	0.8143016019974935	0.05892488101166694	1.221454193046263	-3.816910328462156	0.1117708568511681	-0.5570558236044352	0.732229554333472	-4.356380445101666	-4.356380445101009	0.5336091102782161	-0.009105774121001864	-1.543177449467539	-0.3908632410632716	5.29433958158692e-09	1.225863072376904e-09	2.025916475000678e-08	4.902650278971077e-08	5.293234507601032e-09	-1.505791004836454e-08	1.769379759172285e-08
1.06	-0.1814358337194964	0.03899024670735873	0.7531742151555623	1.087841339962927	-0.2361536346824797	-0.07293872246434632	-0.4350869015834108	1.145875814834654	1.145875814834767	-0.02781304421898291	0.1744281331659843	0.4328962193117368	0.1027963688654486	0.05236958306928784	0.00673733035716658	0.08648083309502591	-0.2676122795557216	0.00873772130138213	-0.04330677110180182	0.03919900389260886	-0.3061247707971642	-0.3061247707971529	0.03195275572050396	-0.000912630988405428	-0.1034632909369884	-0.02412155994833102	-0.2026744794324116	0.02896380383756277	0.01345791715779879	-0.4389342993647589	-0.0447529496483112	0.005461634503278527	0.2484293496364829	-3.599537166560584	-61.65013782294444	-8.540614944256298	1.956486255536527	19.81090211209562	-773.0006209581896	55.63528385365499	0.8072129942770995	0.07110822044540535	1.219223245059885	-3.828756398754754	0.1119387626112259	-0.5728298393079382	0.7905331646577531	-4.368643788905932	-4.368643788905936	0.5229604509779969	-0.005303441131189275	-1.535705259061893	-0.3853132719574744	6.219066339452272e-09	2.091967583023399e-09	2.056274571434537e-08	5.826986999060716e-08	5.0945258718973e-09	-1.64533151298044e-08	1.758447558013511e-08
1.07	-0.1808726753875381	0.0390613464732275	0.7540997119436061	1.084974827964853	-0.2360608208318698	-0.0733998480385709	-0.4346536196646959	1.142596487447652	1.14259648744778	-0.02746665775414039	0.1744187319429963	0.4317849476952443	0.1025356944014085	0.06022480372463674	0.007501823373585141	0.0986030182386699	-0.3056623512473634	0.009819891587609856	-0.04891460802700331	0.04757653859523787	-0.3497361806165987	-0.3497361806165992	0.03733645737403426	-0.0009655139071688371	-0.1187777317773296	-0.02801280501536852	-0.2024772375279016	0.02882010300685489	0.01349141603095955	-0.4379857074528527	-0.04427436408379543	0.005366653187233562	0.2484147488605867	-3.742297942597675	-61.47574498648453	-8.525419440463457	1.924467092620658	19.56126180776378	-772.7303368361293	55.60557508816699	0.7690865025321481	0.08200090420156066	1.206386623450041	-3.788965783145	0.1055944316121569	-0.5541939688765809	0.8792374345948492	-4.356712122596264	-4.356712122598008	0.5478646538383561	-0.004951371063800187	-1.527319548062009	-0.3909395038706983	7.145405057690472e-09	2.958205985126015e-09	2.074083555966432e-08	6.754838488929614e-08	4.904905400647454e-09	-1.782457038793632e-08	1.734286096011689e-08
